<?xml version="1.0" encoding="utf-8"?>
<!-- Generator: Adobe Illustrator 16.0.0, SVG Export Plug-In . SVG Version: 6.00 Build 0)  -->
<!DOCTYPE svg PUBLIC "-//W3C//DTD SVG 1.1//EN" "http://www.w3.org/Graphics/SVG/1.1/DTD/svg11.dtd">
<svg version="1.1" id="Layer_1" xmlns="http://www.w3.org/2000/svg" xmlns:xlink="http://www.w3.org/1999/xlink" x="0px" y="0px"
	 width="380px" height="137.5px" viewBox="0 0 380 137.5" enable-background="new 0 0 380 137.5" xml:space="preserve">
<g enable-background="new    ">
	<path fill="#3A2B99" d="M1.519,21.95c2.07,0,8.797,0.311,14.283,0.311c5.589,0,12.006-0.311,14.8-0.311
		c0.414,0.621,0.518,3.312,0,4.036c-2.794,0.311-4.657,0.518-6.106,0.932c-2.484,0.621-2.898,1.863-3.105,4.968
		c-0.311,4.451-0.207,11.902-0.207,21.011c0,9.626,0.104,19.354,0.311,22.978c0.104,3.208,0.621,4.657,3.933,5.485
		c1.552,0.311,3.933,0.725,6.935,1.139c0.517,0.414,0.207,3.726-0.311,4.14c-2.277,0-9.729-0.311-15.215-0.311
		c-6.106,0-13.766,0.311-15.628,0.311c-0.621-0.311-0.621-3.726-0.104-4.14c2.794-0.311,4.244-0.518,5.796-0.828
		c3.312-0.828,3.726-2.277,4.037-4.348c0.414-3.001,0.311-9.107,0.311-26.082c0-8.693,0.104-14.593-0.207-19.458
		c-0.207-2.794-0.518-3.933-2.691-4.554c-1.863-0.518-3.83-0.828-6.935-1.242C0.898,25.469,1.105,22.468,1.519,21.95z"/>
	<path fill="#3A2B99" d="M56.479,87.569c-6.831,0-12.11-2.588-15.629-7.452c-2.691-3.726-4.14-8.798-4.14-14.18
		c0-7.97,3.726-14.49,10.867-18.733c4.968-3.105,10.661-4.347,13.455-4.347c4.451,0,7.245,0.931,9.211,1.862
		c1.863,0.828,2.691,1.76,3.208,2.795c0.104,0.414,0,1.449-0.207,1.967c-0.725,1.862-2.898,4.45-3.933,4.864
		c-0.207,0.104-0.828,0.207-1.035,0.104c-2.587-2.381-6.624-5.899-12.006-5.899c-7.866,0-10.764,6.831-10.764,13.559
		c0,4.45,1.242,9.211,4.037,12.42c2.794,3.415,6.624,5.071,11.592,5.071c3.726,0,7.763-1.035,12.213-5.071
		c0.207,0.104,0.725,0.518,0.725,1.035c0,1.138-0.414,3.519-0.725,3.933C68.588,85.499,61.033,87.569,56.479,87.569z"/>
	<path fill="#3A2B99" d="M83.285,81.67c1.759-0.621,2.07-1.76,2.07-3.313c0.207-5.899,0.207-17.905,0.311-27.014
		c0-0.207-0.414-0.828-0.725-0.932l-6.521-0.414c0-1.241,0.725-3.208,1.242-3.829c1.759-0.311,4.451-1.035,5.485-1.76
		c0.311-0.104,0.518-0.725,0.518-0.828c0.207-9.107,2.484-16.767,10.557-22.666c3.312-2.381,7.349-3.83,10.454-3.83
		c3.001,0,6.106,0.725,7.556,3.002c0.104,0.311,0.104,1.242,0,1.449c-0.311,1.242-2.898,5.796-3.83,6.521
		c-0.207,0.207-1.035,0.207-1.346,0.104c-2.691-2.588-5.899-4.141-8.073-4.141c-1.449,0-2.795,0.414-4.14,1.967
		c-2.38,2.898-2.484,8.487-2.484,15.732v1.759c0,0.311,0.414,0.828,0.724,0.828c8.487,0,10.35-0.207,12.11-0.311
		c-0.311,1.449-0.932,4.658-1.139,6.624c-3.933-0.104-7.659-0.104-10.971-0.104c-0.311,0-0.724,0.518-0.724,0.932
		c0,9.729,0.104,20.493,0.414,26.393c0.104,2.174,0.725,3.105,3.002,3.727c1.552,0.414,2.898,0.621,6.417,1.035
		c0.517,0.517,0.207,3.726-0.414,4.036c-2.381,0-6.624-0.311-13.766-0.311c-6.21,0-9.108,0.311-11.282,0.311
		c-0.518-0.621-0.621-3.623,0-4.14C81.215,82.084,82.25,81.98,83.285,81.67z"/>
	<path fill="#3A2B99" d="M132.446,53.104c-1.656-2.588-4.864-3.829-7.659-3.829c-2.794,0-4.347,0.724-4.657,1.034
		c-1.242,1.035-2.898,4.555-4.347,7.452c-0.414,0.518-4.14-1.242-3.933-2.173c0.414-1.76,2.07-6.521,2.898-7.142
		c4.451-2.898,11.385-5.589,14.076-5.589c4.865,0,8.591,2.276,10.868,5.692c1.966,3.208,2.587,6.313,2.587,10.453
		c0,5.278-0.414,13.352-0.414,17.698c0,2.381,0.932,3.83,4.037,3.83c1.553,0,2.38-0.207,3.726-0.518
		c0.104,0.518-0.104,3.622-0.518,4.036c-2.484,2.484-6.417,3.52-9.004,3.52c-3.208,0-5.072-1.449-5.692-3.002
		c-0.414-0.621-0.621-1.553-0.828-2.276c0-0.104-0.414-0.207-0.518-0.104c-5.899,3.622-9.729,5.382-12.938,5.382
		c-1.967,0-4.14-1.242-5.899-2.898c-2.277-2.38-3.623-5.692-3.623-9.314c0-2.898,1.966-6.21,2.38-6.624
		c3.933-1.967,15.628-4.451,19.872-6.624c0.207-0.104,0.621-0.725,0.725-1.035c0.207-0.621,0.207-1.553,0.207-1.76
		C133.792,57.347,133.688,55.07,132.446,53.104z M132.964,66.145c-2.898,1.139-9.522,3.105-11.902,4.45
		c-0.518,0.207-1.242,2.174-1.242,3.416c0,3.829,2.691,6.728,7.245,6.728c1.242,0,3.623-0.621,4.968-1.656
		c0.932-0.621,1.139-1.346,1.346-2.588c0.207-1.345,0.207-7.969,0.207-9.832C133.585,66.559,133.274,66.041,132.964,66.145z"/>
	<path fill="#3A2B99" d="M175.812,86.638c-1.967,0-4.451-0.311-11.489-0.311c-4.658,0-9.004,0.311-10.661,0.311
		c-0.621-0.414-0.725-3.623-0.104-4.14c2.174-0.311,3.416-0.621,4.658-1.035c1.552-0.414,1.759-1.242,1.863-3.209
		c0.207-2.587,0.207-8.28,0.207-13.766v-10.35c0-0.518-0.207-1.656-0.931-2.277c-1.139-1.242-3.209-1.966-5.486-2.897
		c-0.414-0.621,0-2.795,0.621-3.209c3.312-0.104,10.557-1.553,14.904-3.104v18.733c0,5.692,0,12.316,0.104,16.767
		c0,1.656,0.518,2.898,2.07,3.416c1.552,0.414,2.07,0.518,4.761,0.932C176.743,83.118,176.433,86.12,175.812,86.638z
		 M167.635,33.853c-0.518,0.414-4.761,0.725-5.382,0.311c-1.656-1.035-2.588-2.381-3.208-4.761c-0.104-0.518,0-3.105,0.621-3.623
		c1.035-0.932,3.623-2.174,5.796-2.174c1.863,0,3.001,0.518,3.312,0.932c0.517,0.725,1.138,2.277,1.138,3.416
		C169.912,30.022,169.188,32.507,167.635,33.853z"/>
	<path fill="#3A2B99" d="M228.39,86.638c-2.897-0.104-9.419-0.311-17.698-0.311c-8.694,0-13.973,0.207-16.457,0.311
		c-0.518-0.518-0.414-3.623,0-4.14c3.209-0.414,6.106-0.725,7.866-1.139c3.519-0.725,4.036-2.795,4.243-7.556
		c0.311-11.281,0.414-27.531,0.414-45.229c0-0.414-0.414-0.932-0.725-0.932h-12.316c-1.656,0-3.209,0.621-4.554,3.001
		c-1.242,2.07-2.588,5.59-4.244,10.247c-0.621,0.311-4.244-0.621-4.451-1.242c0.828-4.554,1.967-13.455,2.277-18.319
		c0-0.311,1.346-0.725,1.656-0.518c1.759,0.932,3.933,1.449,8.59,1.449h38.398c5.59,0,8.073-0.207,10.867-1.656
		c0.518-0.104,1.346,0.414,1.553,0.621c-1.035,4.243-1.966,13.559-2.483,19.354c-0.518,0.621-4.243,0.518-4.657,0
		c-0.311-4.243-0.932-7.97-1.656-9.937c-0.932-2.069-2.174-2.897-4.141-2.897c-5.691-0.104-11.178-0.104-13.662,0
		c-0.311,0.104-0.518,0.518-0.518,0.725c0,15.628-0.104,43.263,0.311,48.438c0.207,1.863,0.828,3.52,3.313,4.244
		c1.76,0.518,4.037,0.725,8.591,1.346C229.32,83.118,229.01,86.224,228.39,86.638z"/>
	<path fill="#3A2B99" d="M278.793,76.288c0.207,0.827-0.518,3.208-0.725,3.726c-4.243,4.968-12.316,7.556-16.87,7.556
		c-5.589,0-9.833-1.656-13.145-4.864c-4.45-4.244-6.417-10.868-6.417-17.078c0-9.625,4.14-15.731,9.418-19.251
		c3.52-2.174,7.866-3.519,11.799-3.519c10.351,0,14.387,8.693,15.215,15.317c0.104,0.311,0.725,0.932,1.76,1.242
		c0,0.621-0.725,3.002-1.139,3.313c-4.554,1.138-18.423,1.966-27.635,2.276c-0.414,0.104-0.518,0.621-0.518,1.139
		c0.207,2.898,1.76,7.142,4.555,9.626c3.105,2.794,6.21,3.933,11.074,3.933c4.244,0,8.28-1.449,12.109-4.243
		C278.379,75.563,278.689,75.978,278.793,76.288z M250.537,59.106c0,0.207,0.207,0.828,0.725,0.828
		c3.727,0.104,15.318-0.311,17.285-0.725c0.311-0.207,0.518-0.518,0.518-0.932c-0.621-5.175-4.141-10.453-9.522-10.453
		C254.574,47.825,251.055,52.586,250.537,59.106z"/>
	<path fill="#3A2B99" d="M306.738,87.569c-6.83,0-12.109-2.588-15.629-7.452c-2.69-3.726-4.139-8.798-4.139-14.18
		c0-7.97,3.725-14.49,10.867-18.733c4.968-3.105,10.66-4.347,13.455-4.347c4.45,0,7.244,0.931,9.211,1.862
		c1.863,0.828,2.691,1.76,3.209,2.795c0.104,0.414,0,1.449-0.207,1.967c-0.725,1.862-2.898,4.45-3.934,4.864
		c-0.207,0.104-0.828,0.207-1.035,0.104c-2.587-2.381-6.623-5.899-12.006-5.899c-7.865,0-10.764,6.831-10.764,13.559
		c0,4.45,1.242,9.211,4.037,12.42c2.794,3.415,6.623,5.071,11.592,5.071c3.726,0,7.762-1.035,12.213-5.071
		c0.207,0.104,0.725,0.518,0.725,1.035c0,1.138-0.414,3.519-0.725,3.933C318.848,85.499,311.293,87.569,306.738,87.569z"/>
	<path fill="#3A2B99" d="M327.954,20.604c6.21-0.518,13.559-2.07,16.87-3.52c0.414,0.104,1.035,1.656,0.932,2.07
		c-1.035,1.967-1.139,2.898-1.242,10.144c-0.104,6.624-0.104,16.974-0.104,19.562c0,0.207,0.311,0.207,0.414,0.104
		c5.383-4.037,10.557-6.106,13.973-6.106c8.798,0,13.559,6.728,13.559,16.974c0,5.899,0.104,13.973,0.104,18.63
		c0,1.967,1.035,2.691,1.863,3.002c1.346,0.518,3.002,0.828,4.968,1.035c0.518,0.414,0.104,3.829-0.621,4.14
		c-1.966-0.104-6.003-0.311-10.764-0.311c-3.726,0-9.108,0.311-10.454,0.311c-0.621-0.518-0.621-3.52-0.104-4.14
		c1.449-0.104,2.795-0.414,3.934-0.621c1.967-0.414,2.277-1.449,2.381-5.176c0.104-4.761,0.311-14.8-0.311-19.562
		c-0.414-2.587-2.795-7.348-9.626-7.348c-2.38,0-5.589,0.931-7.97,2.587c-0.828,0.518-1.242,1.76-1.242,2.484
		c0,7.142,0.104,19.044,0.207,22.045c0.207,3.416,0.311,4.141,2.691,4.865c1.139,0.207,2.174,0.518,4.244,0.725
		c0.724,0.517,0.413,3.622-0.207,4.14c-1.449,0-5.176-0.311-11.179-0.311c-6.106,0-9.315,0.311-10.972,0.311
		c-0.724-0.621-0.621-3.726-0.104-4.14c1.967-0.311,3.002-0.621,3.934-0.932c1.967-0.621,2.277-1.346,2.381-4.037
		c0.104-2.483,0.207-14.386,0.207-16.767c0-23.288,0.104-28.566-0.207-32.499c-0.104-1.656-0.518-2.691-1.863-3.105
		c-1.346-0.311-3.727-0.621-5.796-0.828C327.126,23.916,327.333,20.812,327.954,20.604z"/>
</g>
<g enable-background="new    ">
	<path fill="#3A2B99" d="M9.408,114.858v3.013H2.884v4.559h5.03v3.013h-5.03v6.891h-3.825v-17.475H9.408z"/>
	<path fill="#3A2B99" d="M9.198,123.163c0.105-0.733,0.314-2.279,2.148-3.327c0.917-0.524,1.991-0.707,3.065-0.707
		c1.362,0,2.777,0.34,3.747,1.362c0.786,0.786,0.838,2.253,0.838,3.825v5.135c0,2.2,0.079,2.437,0.209,2.882h-3.328
		c-0.157-0.524-0.183-0.813-0.183-1.991c-0.472,0.839-1.31,2.253-3.563,2.253c-1.729,0-3.38-0.995-3.38-3.537
		c0-3.589,2.803-4.532,6.655-4.741v-0.498c0-1.127,0-2.306-1.284-2.306c-1.205,0-1.441,0.97-1.545,1.991L9.198,123.163z
		 M15.407,126.15c-2.07,0.262-2.935,0.76-2.935,2.437c0,0.917,0.341,1.624,1.205,1.624c0.445,0,0.838-0.21,1.179-0.707
		c0.498-0.734,0.55-1.546,0.55-2.726V126.15z"/>
	<path fill="#3A2B99" d="M27.957,124.29c-0.131-1.86-0.576-2.41-1.415-2.41c-1.074,0-1.808,0.864-1.808,3.824
		c0,1.939,0.21,3.982,1.729,3.982c1.152,0,1.415-1.048,1.493-2.384l3.354,0.21c-0.157,1.336-0.55,5.082-5.057,5.082
		c-4.401,0-5.135-3.956-5.135-6.707c0-3.484,1.257-6.759,5.318-6.759c1.179,0,2.463,0.235,3.484,1.336
		c1.205,1.31,1.31,2.594,1.389,3.694L27.957,124.29z"/>
	<path fill="#3A2B99" d="M36.682,119.417v8.305c0,1.284,0,2.096,1.231,2.096c1.598,0,1.598-1.021,1.598-3.799v-6.602h3.589v12.916
		h-3.38v-1.781c-0.655,1.1-1.231,2.043-3.327,2.043c-3.301,0-3.301-2.41-3.301-4.768v-8.41H36.682z"/>
	<path fill="#3A2B99" d="M49.362,114.858v17.475h-3.589v-17.475H49.362z"/>
	<path fill="#3A2B99" d="M56.069,115.33v4.087h2.384v2.829h-2.384v4.742c0,2.437,0,2.751,2.567,2.594v2.751
		c-0.524,0.104-1.258,0.262-2.227,0.262c-1.179,0-2.489-0.288-3.223-1.336c-0.628-0.917-0.628-2.227-0.628-3.878v-5.135h-1.415
		v-2.829h1.598l0.288-3.799L56.069,115.33z"/>
	<path fill="#3A2B99" d="M61.99,119.417l1.755,7.912l1.677-7.912h3.092l-3.877,13.151c-0.734,2.437-1.31,4.35-4.166,4.35
		c-0.707,0-1.1-0.104-1.545-0.21v-2.829c0.34,0.053,0.603,0.078,1.021,0.078c1.415,0,1.703-0.314,2.148-1.859L58.4,119.417H61.99z"
		/>
	<path fill="#3A2B99" d="M86.067,125.861c0,4.14-1.493,6.733-5.266,6.733c-3.72,0-5.24-2.567-5.24-6.733
		c0-4.034,1.415-6.732,5.266-6.732C84.652,119.129,86.067,121.827,86.067,125.861z M80.801,121.644c-1.153,0-1.52,1.048-1.52,4.218
		c0,3.433,0.472,4.219,1.546,4.219c1.048,0,1.52-0.76,1.52-4.219c0-3.327-0.419-4.218-1.52-4.218H80.801z"/>
	<path fill="#3A2B99" d="M94.529,119.417v2.829H92.25v10.087h-3.458v-10.087h-1.467v-2.829h1.467
		c0.052-2.201,0.131-3.433,1.388-4.428c0.681-0.551,1.441-0.813,2.777-0.813c0.76,0,1.231,0.079,1.703,0.131v2.804
		c-0.236-0.026-0.446-0.053-0.786-0.053c-1.572,0-1.625,0.629-1.625,2.358H94.529z"/>
	<path fill="#3A2B99" d="M110.275,119.889c-0.209-0.629-0.708-2.175-2.463-2.175c-1.284,0-1.834,0.891-1.834,1.598
		c0,1.206,1.153,1.625,3.013,2.332c1.965,0.76,4.821,1.834,4.821,5.371c0,2.986-2.096,5.58-6.209,5.58
		c-1.257,0-3.144-0.235-4.559-1.834c-0.969-1.126-1.284-2.2-1.493-2.96l3.354-0.943c0.209,0.786,0.707,2.62,2.803,2.62
		c1.31,0,2.227-0.733,2.227-1.887c0-1.231-1.101-1.729-2.411-2.2c-2.384-0.865-5.266-1.887-5.266-5.45
		c0-2.725,1.755-5.345,5.581-5.345c4.349,0,5.266,2.908,5.633,4.062L110.275,119.889z"/>
	<path fill="#3A2B99" d="M122.144,124.29c-0.131-1.86-0.576-2.41-1.415-2.41c-1.074,0-1.808,0.864-1.808,3.824
		c0,1.939,0.21,3.982,1.729,3.982c1.152,0,1.415-1.048,1.493-2.384l3.354,0.21c-0.157,1.336-0.55,5.082-5.057,5.082
		c-4.401,0-5.135-3.956-5.135-6.707c0-3.484,1.257-6.759,5.318-6.759c1.179,0,2.463,0.235,3.484,1.336
		c1.205,1.31,1.31,2.594,1.389,3.694L122.144,124.29z"/>
	<path fill="#3A2B99" d="M127.436,118.316v-3.563h3.642v3.563H127.436z M131.051,119.417v12.916h-3.589v-12.916H131.051z"/>
	<path fill="#3A2B99" d="M136.868,126.464c-0.026,1.756-0.052,3.643,1.729,3.643c1.546,0,1.729-1.389,1.834-2.228l3.223,0.21
		c-0.262,1.205-0.969,4.506-5.135,4.506c-3.956,0-5.371-3.117-5.371-6.55c0-0.838,0.104-2.882,0.969-4.454
		c0.917-1.65,2.62-2.462,4.375-2.462c2.253,0,3.642,1.257,4.218,2.357c0.917,1.756,0.943,3.406,0.943,4.978H136.868z
		 M140.248,124.395c0.026-0.707,0.079-2.882-1.677-2.882c-1.625,0-1.651,1.965-1.677,2.882H140.248z"/>
	<path fill="#3A2B99" d="M149.155,119.417v1.755c0.524-1.074,1.205-2.043,3.223-2.043c0.498,0,1.965,0,2.855,1.362
		c0.524,0.812,0.524,2.069,0.524,3.354v8.488h-3.589v-8.488c0-1.153-0.104-1.913-1.231-1.913c-1.598,0-1.598,1.258-1.598,2.83v7.571
		h-3.589v-12.916H149.155z"/>
	<path fill="#3A2B99" d="M164.534,124.29c-0.131-1.86-0.576-2.41-1.415-2.41c-1.074,0-1.808,0.864-1.808,3.824
		c0,1.939,0.21,3.982,1.729,3.982c1.152,0,1.415-1.048,1.493-2.384l3.354,0.21c-0.157,1.336-0.55,5.082-5.057,5.082
		c-4.401,0-5.135-3.956-5.135-6.707c0-3.484,1.257-6.759,5.318-6.759c1.179,0,2.463,0.235,3.484,1.336
		c1.205,1.31,1.31,2.594,1.389,3.694L164.534,124.29z"/>
	<path fill="#3A2B99" d="M173.023,126.464c-0.026,1.756-0.052,3.643,1.729,3.643c1.546,0,1.729-1.389,1.834-2.228l3.223,0.21
		c-0.262,1.205-0.969,4.506-5.135,4.506c-3.956,0-5.371-3.117-5.371-6.55c0-0.838,0.104-2.882,0.969-4.454
		c0.917-1.65,2.62-2.462,4.375-2.462c2.253,0,3.642,1.257,4.218,2.357c0.917,1.756,0.943,3.406,0.943,4.978H173.023z
		 M176.403,124.395c0.026-0.707,0.079-2.882-1.677-2.882c-1.625,0-1.651,1.965-1.677,2.882H176.403z"/>
	<path fill="#3A2B99" d="M203.073,122.849c-0.603,2.594-1.415,4.166-2.358,5.606c0.996,1.022,1.441,0.97,2.358,0.917v2.961
		c-0.366,0.078-0.76,0.184-1.31,0.184c-1.703,0-2.62-0.865-3.406-1.65c-0.996,0.785-2.253,1.729-4.716,1.729
		c-5.371,0-5.581-4.428-5.581-5.161c0-2.463,1.546-4.009,3.957-5.03c-0.393-0.576-1.625-2.253-1.625-3.93
		c0-1.887,1.677-3.878,4.611-3.878c3.065,0,4.48,2.122,4.48,4.166c0,2.516-2.07,3.694-3.014,4.192l2.41,3.222
		c0.787-1.336,1.153-2.882,1.363-3.851L203.073,122.849z M193.484,124.421c-1.074,0.655-1.781,1.546-1.781,2.777
		c0,1.126,0.603,2.515,2.516,2.515c1.309,0,1.99-0.629,2.436-1.021L193.484,124.421z M194.979,120.963
		c0.916-0.524,1.571-1.311,1.571-2.411c0-0.445-0.157-1.467-1.362-1.467c-0.969,0-1.362,0.655-1.362,1.362
		C193.825,119.364,194.637,120.491,194.979,120.963z"/>
	<path fill="#3A2B99" d="M220.129,114.858v3.274h-3.563v14.2h-3.825v-14.2h-3.484v-3.274H220.129z"/>
	<path fill="#3A2B99" d="M222.514,126.464c-0.025,1.756-0.052,3.643,1.729,3.643c1.546,0,1.729-1.389,1.834-2.228l3.223,0.21
		c-0.263,1.205-0.97,4.506-5.136,4.506c-3.955,0-5.37-3.117-5.37-6.55c0-0.838,0.104-2.882,0.97-4.454
		c0.916-1.65,2.619-2.462,4.375-2.462c2.253,0,3.642,1.257,4.218,2.357c0.917,1.756,0.943,3.406,0.943,4.978H222.514z
		 M225.895,124.395c0.025-0.707,0.078-2.882-1.678-2.882c-1.624,0-1.65,1.965-1.676,2.882H225.895z"/>
	<path fill="#3A2B99" d="M237.684,124.29c-0.131-1.86-0.576-2.41-1.414-2.41c-1.074,0-1.809,0.864-1.809,3.824
		c0,1.939,0.21,3.982,1.729,3.982c1.152,0,1.415-1.048,1.493-2.384l3.354,0.21c-0.157,1.336-0.551,5.082-5.057,5.082
		c-4.401,0-5.135-3.956-5.135-6.707c0-3.484,1.258-6.759,5.318-6.759c1.179,0,2.463,0.235,3.484,1.336
		c1.205,1.31,1.311,2.594,1.389,3.694L237.684,124.29z"/>
	<path fill="#3A2B99" d="M246.592,114.858v5.921c0.367-0.576,1.074-1.65,3.17-1.65c3.248,0,3.248,2.672,3.248,4.898v8.306h-3.589
		v-8.306c0-1.23,0-2.096-1.205-2.096c-1.571,0-1.624,1.153-1.624,2.201v8.2h-3.59v-17.475H246.592z"/>
	<path fill="#3A2B99" d="M258.905,119.417v1.755c0.524-1.074,1.205-2.043,3.223-2.043c0.497,0,1.965,0,2.855,1.362
		c0.524,0.812,0.524,2.069,0.524,3.354v8.488h-3.59v-8.488c0-1.153-0.104-1.913-1.231-1.913c-1.599,0-1.599,1.258-1.599,2.83v7.571
		h-3.589v-12.916H258.905z"/>
	<path fill="#3A2B99" d="M277.926,125.861c0,4.14-1.493,6.733-5.266,6.733c-3.721,0-5.24-2.567-5.24-6.733
		c0-4.034,1.414-6.732,5.266-6.732C276.512,119.129,277.926,121.827,277.926,125.861z M272.66,121.644
		c-1.153,0-1.52,1.048-1.52,4.218c0,3.433,0.471,4.219,1.545,4.219c1.049,0,1.52-0.76,1.52-4.219c0-3.327-0.419-4.218-1.52-4.218
		H272.66z"/>
	<path fill="#3A2B99" d="M283.637,114.858v17.475h-3.589v-17.475H283.637z"/>
	<path fill="#3A2B99" d="M296.239,125.861c0,4.14-1.493,6.733-5.267,6.733c-3.72,0-5.239-2.567-5.239-6.733
		c0-4.034,1.415-6.732,5.267-6.732C294.824,119.129,296.239,121.827,296.239,125.861z M290.973,121.644
		c-1.152,0-1.52,1.048-1.52,4.218c0,3.433,0.473,4.219,1.547,4.219c1.047,0,1.52-0.76,1.52-4.219c0-3.327-0.42-4.218-1.52-4.218
		H290.973z"/>
	<path fill="#3A2B99" d="M309.339,119.626c-0.21-0.052-0.445-0.104-0.786-0.104c-0.419,0-1.126,0.053-1.361,1.179
		c0.969,0.996,0.969,2.306,0.969,2.594c0,2.594-2.201,3.878-4.664,3.878c-0.785,0-1.257-0.131-1.703-0.236
		c-0.838,0.472-0.838,0.97-0.838,1.074c0,0.708,0.76,0.76,2.148,0.865c2.935,0.157,3.825,0.209,4.742,0.864
		c0.996,0.682,1.336,1.756,1.336,2.855c0,4.009-4.218,4.297-6.314,4.297c-1.1,0-5.291,0-5.291-3.065c0-1.598,1.283-2.122,2.096-2.41
		c-0.42-0.21-1.678-0.786-1.678-2.227c0-1.572,1.363-2.358,2.228-2.856c-0.786-0.419-1.913-1.048-1.913-3.223
		c0-3.064,2.594-3.981,4.821-3.981c1.415,0,2.148,0.314,2.776,0.603c0.184-1.337,0.473-2.567,2.438-2.567
		c0.498,0,0.733,0.078,0.995,0.131V119.626z M300.563,133.328c0,0.917,0.917,1.311,2.855,1.311c1.86,0,2.646-0.394,2.646-1.362
		c0-0.996-0.865-1.231-1.415-1.258c-0.419-0.053-2.489-0.184-2.96-0.235C301.27,131.992,300.563,132.359,300.563,133.328z
		 M302.029,123.242c0,0.785,0.078,1.991,1.231,1.991c0.943,0,1.179-0.708,1.179-2.07c0-1.598-0.393-2.096-1.126-2.096
		C302.37,121.067,302.029,121.748,302.029,123.242z"/>
	<path fill="#3A2B99" d="M312.85,119.417l1.755,7.912l1.677-7.912h3.092l-3.877,13.151c-0.734,2.437-1.311,4.35-4.166,4.35
		c-0.707,0-1.101-0.104-1.546-0.21v-2.829c0.341,0.053,0.603,0.078,1.021,0.078c1.415,0,1.703-0.314,2.148-1.859l-3.694-12.681
		H312.85z"/>
	<path fill="#3A2B99" d="M332.971,114.858c-0.445,0.838-1.022,1.912-1.625,3.956c-0.707,2.488-1.021,4.847-1.021,6.969
		c0,2.069,0.288,4.401,1.021,6.969c0.603,2.07,1.18,3.118,1.625,3.956h-2.804c-2.175-3.223-3.171-7.047-3.171-10.925
		s0.996-7.702,3.171-10.925H332.971z"/>
	<path fill="#3A2B99" d="M346.594,114.858v3.013h-6.523v4.559h5.03v3.013h-5.03v6.891h-3.825v-17.475H346.594z"/>
	<path fill="#3A2B99" d="M355.345,119.889c-0.21-0.629-0.708-2.175-2.463-2.175c-1.284,0-1.834,0.891-1.834,1.598
		c0,1.206,1.153,1.625,3.013,2.332c1.965,0.76,4.821,1.834,4.821,5.371c0,2.986-2.097,5.58-6.21,5.58
		c-1.257,0-3.144-0.235-4.559-1.834c-0.969-1.126-1.283-2.2-1.493-2.96l3.354-0.943c0.21,0.786,0.708,2.62,2.804,2.62
		c1.311,0,2.227-0.733,2.227-1.887c0-1.231-1.1-1.729-2.41-2.2c-2.385-0.865-5.266-1.887-5.266-5.45c0-2.725,1.755-5.345,5.58-5.345
		c4.35,0,5.266,2.908,5.633,4.062L355.345,119.889z"/>
	<path fill="#3A2B99" d="M370.146,114.858v3.274h-3.563v14.2h-3.825v-14.2h-3.484v-3.274H370.146z"/>
	<path fill="#3A2B99" d="M371.51,136.708c0.445-0.838,0.996-1.886,1.625-3.956c0.732-2.567,1.021-4.899,1.021-6.969
		c0-2.122-0.314-4.454-1.021-6.969c-0.604-2.044-1.18-3.118-1.625-3.956h2.83c2.121,3.223,3.144,7.047,3.144,10.925
		c0,3.903-1.022,7.702-3.144,10.925H371.51z"/>
</g>
<rect fill="#DB2C1D" width="380" height="8"/>
<rect y="100.333" fill="#DB2C1D" width="380" height="8"/>
</svg>
