<svg xmlns="http://www.w3.org/2000/svg" xmlns:xlink="http://www.w3.org/1999/xlink" version="1.1" id="Layer_1" x="0px" y="0px" enable-background="new 0 0 1600 1066" xml:space="preserve" viewBox="1 1.06 1600 1065.9">
<path fill="#631D35" opacity="1.000000" stroke="none" d=" M1.000000,531.000000   C1.000000,354.365112 1.000000,177.730209 1.000000,1.058439   C534.333313,1.058439 1067.666626,1.058439 1601.000000,1.058439   C1601.000000,75.770416 1601.000000,150.423965 1600.672852,225.655258   C1563.674194,248.327850 1534.370850,277.810791 1513.465454,315.126251   C1482.949707,369.595978 1474.343872,427.657867 1488.221924,488.580139   C1499.263916,537.052551 1522.997437,578.628357 1560.109741,611.887878   C1572.823120,623.281372 1587.318604,632.686462 1601.000000,643.000000   C1601.000000,762.025818 1601.000000,881.051697 1600.541504,1000.643433   C1556.132935,1001.209351 1512.182983,1001.209351 1468.071777,1001.209351   C1467.751709,1003.781860 1467.493530,1005.857727 1467.222778,1008.033142   C1422.893677,1008.033142 1378.819458,1008.033142 1334.602051,1008.033142   C1334.411743,1005.119568 1334.241577,1002.515991 1334.062012,999.768066   C1289.674927,999.768066 1245.597900,999.768066 1200.873291,999.768066   C1200.873291,1008.602905 1200.873291,1017.161621 1200.873291,1025.762207   C1156.171875,1025.762207 1112.119873,1025.762207 1067.531006,1025.762207   C1067.531006,1015.142456 1067.531006,1004.883850 1067.531006,994.498901   C1022.945435,994.498901 978.898987,994.498901 934.240662,994.498901   C934.240662,1002.738892 934.240662,1010.638550 934.240662,1018.656128   C889.584229,1018.656128 845.541626,1018.656128 800.920532,1018.656128   C800.920532,1011.559631 800.920532,1004.826172 800.920532,997.701843   C798.366821,997.701843 796.388916,997.658081 794.413391,997.708313   C750.763184,998.817322 707.124939,996.928711 663.421021,999.044434   C621.859619,1001.056458 580.124084,999.472290 538.465088,999.456421   C537.324524,999.455933 536.183960,999.305725 534.892639,999.214661   C534.506348,997.515686 534.155151,995.971130 533.829163,994.537354   C489.488586,994.537354 445.421906,994.537354 400.864197,994.537354   C400.864197,1003.351562 400.864197,1011.779785 400.864197,1020.494690   C356.315491,1020.494690 312.260406,1020.494690 267.563049,1020.494690   C267.563049,1012.839355 267.563049,1005.455383 267.563049,998.032104   C222.850586,998.032104 178.781158,998.032104 134.260559,998.032104   C134.260559,1005.641907 134.260559,1012.917664 134.260559,1020.804626   C131.863358,1020.804626 129.912704,1020.804749 127.962044,1020.804565   C103.466553,1020.802795 78.971024,1020.775574 54.475571,1020.807739   C36.650326,1020.831116 18.825186,1020.933044 1.000000,1021.000000   C1.000000,1007.640808 1.000000,994.281677 1.381569,980.501465   C8.279352,977.170654 14.950905,974.562744 21.286989,971.302795   C67.950729,947.294434 103.688171,912.223206 127.477394,865.326111   C151.558472,817.853699 159.747452,767.630554 150.527496,715.230774   C139.190826,650.801086 106.939842,598.791260 54.143250,559.877808   C37.794922,547.828430 20.265282,537.771118 1.000000,531.000000  z"/>
<path fill="#F2EFDE" opacity="1.000000" stroke="none" d=" M1.000000,1021.468628   C18.825186,1020.933044 36.650326,1020.831116 54.475571,1020.807739   C78.971024,1020.775574 103.466553,1020.802795 127.962044,1020.804565   C129.912704,1020.804749 131.863358,1020.804626 134.260559,1020.804626   C134.260559,1012.917664 134.260559,1005.641907 134.260559,998.032104   C178.781158,998.032104 222.850586,998.032104 267.563049,998.032104   C267.563049,1005.455383 267.563049,1012.839355 267.563049,1020.494690   C312.260406,1020.494690 356.315491,1020.494690 400.864197,1020.494690   C400.864197,1011.779785 400.864197,1003.351562 400.864197,994.537354   C445.421906,994.537354 489.488586,994.537354 533.829163,994.537354   C534.155151,995.971130 534.506348,997.515686 534.892639,999.214661   C536.183960,999.305725 537.324524,999.455933 538.465088,999.456421   C580.124084,999.472290 621.859619,1001.056458 663.421021,999.044434   C707.124939,996.928711 750.763184,998.817322 794.413391,997.708313   C796.388916,997.658081 798.366821,997.701843 800.920532,997.701843   C800.920532,1004.826172 800.920532,1011.559631 800.920532,1018.656128   C845.541626,1018.656128 889.584229,1018.656128 934.240662,1018.656128   C934.240662,1010.638550 934.240662,1002.738892 934.240662,994.498901   C978.898987,994.498901 1022.945435,994.498901 1067.531006,994.498901   C1067.531006,1004.883850 1067.531006,1015.142456 1067.531006,1025.762207   C1112.119873,1025.762207 1156.171875,1025.762207 1200.873291,1025.762207   C1200.873291,1017.161621 1200.873291,1008.602905 1200.873291,999.768066   C1245.597900,999.768066 1289.674927,999.768066 1334.062012,999.768066   C1334.241577,1002.515991 1334.411743,1005.119568 1334.602051,1008.033142   C1378.819458,1008.033142 1422.893677,1008.033142 1467.222778,1008.033142   C1467.493530,1005.857727 1467.751709,1003.781860 1468.071777,1001.209351   C1512.182983,1001.209351 1556.132935,1001.209351 1600.541504,1001.104675   C1601.000000,1022.994385 1601.000000,1044.988770 1601.000000,1066.962891   C1067.666626,1066.962891 534.333313,1066.962891 1.000000,1066.962891   C1.000000,1051.929565 1.000000,1036.933472 1.000000,1021.468628  z"/>
<path fill="#642137" opacity="1.000000" stroke="none" d=" M0.999998,976.000000   C1.000000,968.979065 1.000000,961.958069 1.364500,954.465088   C31.126377,940.662903 56.688728,922.060486 77.324928,897.229614   C122.241791,843.182373 138.858154,781.357971 125.354111,712.288086   C115.313393,660.932312 89.087608,618.804565 48.473351,585.772217   C34.003391,574.003540 18.321402,564.120422 1.000000,557.000000   C1.000000,549.979065 1.000000,542.958069 1.355975,535.305054   C35.336414,548.001038 64.257561,568.257324 88.381409,595.047546   C123.111938,633.616943 143.591370,678.791260 149.111420,730.553711   C154.222336,778.479858 145.349228,823.790955 123.072502,866.416382   C101.069214,908.518494 69.091148,941.080078 27.499182,964.004333   C19.033905,968.670166 9.851698,972.035278 0.999998,976.000000  z"/>
<path fill="#642137" opacity="1.000000" stroke="none" d=" M1601.000000,614.000000   C1601.000000,621.687561 1601.000000,629.375183 1600.652832,637.648560   C1576.525024,624.257996 1555.931396,606.430420 1538.931641,584.846802   C1491.808105,525.016907 1475.112671,457.382477 1491.248413,382.899658   C1505.245605,318.288940 1541.462402,268.320160 1597.009521,232.438324   C1598.166504,231.690872 1599.662231,231.467758 1601.000000,231.000000   C1601.000000,238.687576 1601.000000,246.375168 1600.649414,254.534546   C1574.889648,272.524231 1554.267090,294.527924 1538.101074,320.818939   C1520.822754,348.918701 1510.347656,379.357849 1507.164307,412.110687   C1502.323853,461.912476 1513.150635,508.225922 1539.779907,550.684204   C1555.710449,576.084045 1576.106812,597.232727 1601.000000,614.000000  z"/>
<path fill="#642137" opacity="1.000000" stroke="none" d=" M0.999999,584.000000   C1.000000,576.645752 1.000000,569.291504 1.366781,561.426147   C2.510674,561.199341 3.319058,561.418945 4.060400,561.777222   C34.491230,576.484009 60.595448,596.704773 80.970795,623.749634   C124.497635,681.524292 137.285767,745.672424 117.782990,815.334473   C103.840210,865.136780 74.392944,904.517212 31.490265,933.440125   C21.944130,939.875732 11.195163,944.527100 0.999999,950.000000   C1.000000,942.645752 1.000000,935.291504 1.362898,927.549927   C31.184092,912.018799 55.143448,890.574280 73.192451,862.921814   C101.846802,819.021118 112.076347,771.041443 102.266655,719.347717   C93.119438,671.144897 68.717445,631.942505 29.997412,601.939941   C21.062504,595.016724 10.703598,589.931213 0.999999,584.000000  z"/>
<path fill="#632137" opacity="1.000000" stroke="none" d=" M0.999989,923.000000   C1.000000,915.645752 1.000000,908.291504 1.318201,900.341187   C108.562523,831.915771 108.359047,678.081909 1.000000,611.000000   C1.000000,603.645752 1.000000,596.291504 1.356553,588.356567   C22.555935,598.416260 40.498383,612.829041 55.524506,630.640564   C96.021736,678.644653 110.567574,733.725281 97.947525,795.255981   C88.162727,842.963257 62.602234,881.057251 23.383806,909.821228   C16.437262,914.915955 8.486822,918.641907 0.999989,923.000000  z"/>
<path fill="#642137" opacity="1.000000" stroke="none" d=" M1601.000000,583.000000   C1601.000000,591.354248 1601.000000,599.708496 1600.784180,608.885986   C1595.447388,605.753174 1590.100586,602.055115 1585.239868,597.801636   C1534.035889,552.994751 1508.636841,496.551483 1509.789673,428.482513   C1510.575317,382.085876 1525.923706,340.611816 1553.917114,303.790131   C1567.172119,286.354889 1582.585938,271.070618 1601.000000,259.000000   C1601.000000,267.354218 1601.000000,275.708466 1600.663452,284.586609   C1591.533569,293.924469 1581.875977,302.040588 1574.097778,311.674133   C1541.812134,351.660217 1526.873291,397.456238 1530.786011,448.913116   C1534.446899,497.060059 1553.818848,538.149719 1587.819092,572.325195   C1591.783813,576.310242 1596.586060,579.461975 1601.000000,583.000000  z"/>
<path fill="#632137" opacity="1.000000" stroke="none" d=" M0.999995,895.000000   C1.000000,886.979065 1.000000,878.958191 1.347205,870.556824   C38.530064,840.694763 57.147717,802.062073 57.562447,755.185547   C57.897015,717.369629 44.201611,684.375366 18.744499,656.473328   C13.489450,650.713623 6.948362,646.127197 1.000004,641.000000   C1.000000,632.979065 1.000000,624.958191 1.267029,616.168884   C57.169388,653.446045 83.247574,706.163147 76.965759,773.245605   C72.201172,824.125854 46.962353,864.012512 5.101924,893.308533   C3.919277,894.136169 2.375433,894.447754 0.999995,895.000000  z"/>
<path fill="#632137" opacity="1.000000" stroke="none" d=" M1601.000000,290.000000   C1601.000000,299.020905 1601.000000,308.041779 1600.667358,317.597412   C1597.790527,320.983917 1595.070312,323.698700 1592.728394,326.707977   C1553.414917,377.225037 1543.938721,432.881714 1564.869873,493.353271   C1572.431885,515.200684 1584.462646,534.601135 1601.000000,551.000000   C1601.000000,560.020874 1601.000000,569.041809 1600.654663,578.526855   C1596.497803,575.531006 1592.474854,572.275269 1588.907227,568.579834   C1547.830322,526.032959 1529.376465,475.073578 1534.491455,416.297516   C1538.616943,368.893158 1559.098633,328.812561 1593.321533,295.792328   C1595.611816,293.582489 1598.428345,291.918121 1601.000000,290.000000  z"/>
<path fill="#642138" opacity="1.000000" stroke="none" d=" M1.000000,673.000000   C1.000000,663.979126 1.000000,654.958191 1.340311,645.499084   C6.422167,649.471680 11.534704,653.549133 15.845893,658.346680   C47.213844,693.253418 59.776905,733.989624 51.912853,780.350220   C46.209763,813.971375 29.766569,841.873047 3.851911,864.103394   C3.156585,864.699890 1.961853,864.714172 0.999997,865.000000   C1.000000,856.312439 1.000000,847.624817 1.315253,838.352051   C27.228971,808.596252 37.737659,774.808960 31.948423,736.360474   C28.296488,712.106628 18.025980,690.842712 1.000000,673.000000  z"/>
<path fill="#642137" opacity="1.000000" stroke="none" d=" M1601.000000,512.000000   C1601.000000,522.687561 1601.000000,533.375122 1600.747192,544.840942   C1600.100830,545.312317 1599.651855,545.055786 1599.321777,544.691528   C1544.206421,483.880615 1543.901367,385.483521 1598.671265,324.983459   C1599.183960,324.417114 1600.212402,324.317505 1601.000000,324.000000   C1601.000000,334.687561 1601.000000,345.375122 1600.670776,356.634644   C1578.901611,392.852386 1572.802124,430.871979 1583.050293,471.272461   C1586.736450,485.803833 1592.262207,499.638855 1601.000000,512.000000  z"/>
<path fill="#642138" opacity="1.000000" stroke="none" d=" M0.999993,832.000000   C1.000000,819.645752 1.000000,807.291565 1.310991,794.289795   C2.971187,789.899109 4.576750,786.226440 5.627450,782.401306   C11.850503,759.746155 10.637504,737.569458 1.000000,716.000000   C1.000000,703.979126 1.000000,691.958191 1.345946,679.358276   C1.950859,678.987366 2.249006,679.161438 2.463248,679.408264   C34.821728,716.687317 39.346142,774.763123 12.944294,816.699524   C9.514667,822.147095 5.007851,826.916443 0.999993,832.000000  z"/>
<path fill="#F4E8ED" opacity="1.000000" stroke="none" d=" M0.999998,976.399963   C9.851698,972.035278 19.033905,968.670166 27.499182,964.004333   C69.091148,941.080078 101.069214,908.518494 123.072502,866.416382   C145.349228,823.790955 154.222336,778.479858 149.111420,730.553711   C143.591370,678.791260 123.111938,633.616943 88.381409,595.047546   C64.257561,568.257324 35.336414,548.001038 1.355975,534.836426   C1.000000,533.933289 1.000000,532.866638 1.000000,531.399963   C20.265282,537.771118 37.794922,547.828430 54.143250,559.877808   C106.939842,598.791260 139.190826,650.801086 150.527496,715.230774   C159.747452,767.630554 151.558472,817.853699 127.477394,865.326111   C103.688171,912.223206 67.950729,947.294434 21.286989,971.302795   C14.950905,974.562744 8.279352,977.170654 1.381569,980.040222   C1.000000,978.933289 1.000000,977.866638 0.999998,976.399963  z"/>
<path fill="#F4E8EE" opacity="1.000000" stroke="none" d=" M1601.000000,230.583344   C1599.662231,231.467758 1598.166504,231.690872 1597.009521,232.438324   C1541.462402,268.320160 1505.245605,318.288940 1491.248413,382.899658   C1475.112671,457.382477 1491.808105,525.016907 1538.931641,584.846802   C1555.931396,606.430420 1576.525024,624.257996 1600.652832,638.117188   C1601.000000,639.388916 1601.000000,640.777771 1601.000000,642.583374   C1587.318604,632.686462 1572.823120,623.281372 1560.109741,611.887878   C1522.997437,578.628357 1499.263916,537.052551 1488.221924,488.580139   C1474.343872,427.657867 1482.949707,369.595978 1513.465454,315.126251   C1534.370850,277.810791 1563.674194,248.327850 1600.672852,226.116516   C1601.000000,227.388885 1601.000000,228.777786 1601.000000,230.583344  z"/>
<path fill="#632037" opacity="1.000000" stroke="none" d=" M1601.000000,365.000000   C1601.000000,410.687561 1601.000000,456.375122 1600.787720,502.918518   C1599.760498,502.782379 1598.725098,501.901306 1598.162476,500.782410   C1576.661377,458.016754 1576.171753,414.911194 1596.298950,371.557922   C1597.411743,369.161011 1599.412598,367.176514 1601.000000,365.000000  z"/>
<path fill="#F4E8ED" opacity="1.000000" stroke="none" d=" M0.999999,950.399963   C11.195163,944.527100 21.944130,939.875732 31.490265,933.440125   C74.392944,904.517212 103.840210,865.136780 117.782990,815.334473   C137.285767,745.672424 124.497635,681.524292 80.970795,623.749634   C60.595448,596.704773 34.491230,576.484009 4.060400,561.777222   C3.319058,561.418945 2.510674,561.199341 1.366781,560.957520   C1.000000,559.933289 1.000000,558.866638 1.000000,557.399963   C18.321402,564.120422 34.003391,574.003540 48.473351,585.772217   C89.087608,618.804565 115.313393,660.932312 125.354111,712.288086   C138.858154,781.357971 122.241791,843.182373 77.324928,897.229614   C56.688728,922.060486 31.126377,940.662903 1.364500,953.996521   C1.000000,952.933289 1.000000,951.866638 0.999999,950.399963  z"/>
<path fill="#F4E8ED" opacity="1.000000" stroke="none" d=" M0.999989,923.399902   C8.486822,918.641907 16.437262,914.915955 23.383806,909.821228   C62.602234,881.057251 88.162727,842.963257 97.947525,795.255981   C110.567574,733.725281 96.021736,678.644653 55.524506,630.640564   C40.498383,612.829041 22.555935,598.416260 1.356553,587.887939   C1.000000,586.933289 1.000000,585.866638 0.999999,584.399963   C10.703598,589.931213 21.062504,595.016724 29.997412,601.939941   C68.717445,631.942505 93.119438,671.144897 102.266655,719.347717   C112.076347,771.041443 101.846802,819.021118 73.192451,862.921814   C55.143448,890.574280 31.184092,912.018799 1.362898,927.081299   C1.000000,925.933289 1.000000,924.866638 0.999989,923.399902  z"/>
<path fill="#F4E8ED" opacity="1.000000" stroke="none" d=" M1601.000000,258.600006   C1582.585938,271.070618 1567.172119,286.354889 1553.917114,303.790131   C1525.923706,340.611816 1510.575317,382.085876 1509.789673,428.482513   C1508.636841,496.551483 1534.035889,552.994751 1585.239868,597.801636   C1590.100586,602.055115 1595.447388,605.753174 1600.784180,609.354614   C1601.000000,610.388916 1601.000000,611.777771 1601.000000,613.583374   C1576.106812,597.232727 1555.710449,576.084045 1539.779907,550.684204   C1513.150635,508.225922 1502.323853,461.912476 1507.164307,412.110687   C1510.347656,379.357849 1520.822754,348.918701 1538.101074,320.818939   C1554.267090,294.527924 1574.889648,272.524231 1600.649414,255.003174   C1601.000000,256.066681 1601.000000,257.133331 1601.000000,258.600006  z"/>
<path fill="#F4E7ED" opacity="1.000000" stroke="none" d=" M0.999995,895.416626   C2.375433,894.447754 3.919277,894.136169 5.101924,893.308533   C46.962353,864.012512 72.201172,824.125854 76.965759,773.245605   C83.247574,706.163147 57.169388,653.446045 1.267029,615.700256   C1.000000,614.611084 1.000000,613.222229 1.000000,611.416626   C108.359047,678.081909 108.562523,831.915771 1.318201,899.872559   C1.000000,898.611084 1.000000,897.222229 0.999995,895.416626  z"/>
<path fill="#F4E8ED" opacity="1.000000" stroke="none" d=" M1601.000000,289.583374   C1598.428345,291.918121 1595.611816,293.582489 1593.321533,295.792328   C1559.098633,328.812561 1538.616943,368.893158 1534.491455,416.297516   C1529.376465,475.073578 1547.830322,526.032959 1588.907227,568.579834   C1592.474854,572.275269 1596.497803,575.531006 1600.654663,578.995483   C1601.000000,580.066711 1601.000000,581.133362 1601.000000,582.600037   C1596.586060,579.461975 1591.783813,576.310242 1587.819092,572.325195   C1553.818848,538.149719 1534.446899,497.060059 1530.786011,448.913116   C1526.873291,397.456238 1541.812134,351.660217 1574.097778,311.674133   C1581.875977,302.040588 1591.533569,293.924469 1600.663452,285.055267   C1601.000000,286.388885 1601.000000,287.777802 1601.000000,289.583374  z"/>
<path fill="#F4E8EE" opacity="1.000000" stroke="none" d=" M0.999997,865.416626   C1.961853,864.714172 3.156585,864.699890 3.851911,864.103394   C29.766569,841.873047 46.209763,813.971375 51.912853,780.350220   C59.776905,733.989624 47.213844,693.253418 15.845893,658.346680   C11.534704,653.549133 6.422167,649.471680 1.340311,645.030396   C1.000000,643.933289 1.000000,642.866638 1.000004,641.399963   C6.948362,646.127197 13.489450,650.713623 18.744499,656.473328   C44.201611,684.375366 57.897015,717.369629 57.562447,755.185547   C57.147717,802.062073 38.530064,840.694763 1.347205,870.088196   C1.000000,868.611084 1.000000,867.222229 0.999997,865.416626  z"/>
<path fill="#F4E7ED" opacity="1.000000" stroke="none" d=" M1601.000000,323.571533   C1600.212402,324.317505 1599.183960,324.417114 1598.671265,324.983459   C1543.901367,385.483521 1544.206421,483.880615 1599.321777,544.691528   C1599.651855,545.055786 1600.100830,545.312317 1600.747192,545.309570   C1601.000000,546.714355 1601.000000,548.428711 1601.000000,550.571533   C1584.462646,534.601135 1572.431885,515.200684 1564.869873,493.353271   C1543.938721,432.881714 1553.414917,377.225037 1592.728394,326.707977   C1595.070312,323.698700 1597.790527,320.983917 1600.667358,318.066071   C1601.000000,319.714355 1601.000000,321.428711 1601.000000,323.571533  z"/>
<path fill="#F4E8EE" opacity="1.000000" stroke="none" d=" M0.999993,832.428467   C5.007851,826.916443 9.514667,822.147095 12.944294,816.699524   C39.346142,774.763123 34.821728,716.687317 2.463248,679.408264   C2.249006,679.161438 1.950859,678.987366 1.345946,678.889648   C1.000000,677.285645 1.000000,675.571289 1.000000,673.428467   C18.025980,690.842712 28.296488,712.106628 31.948423,736.360474   C37.737659,774.808960 27.228971,808.596252 1.315253,837.883423   C1.000000,836.285645 1.000000,834.571289 0.999993,832.428467  z"/>
<path fill="#F4E7ED" opacity="1.000000" stroke="none" d=" M1601.000000,364.555847   C1599.412598,367.176514 1597.411743,369.161011 1596.298950,371.557922   C1576.171753,414.911194 1576.661377,458.016754 1598.162476,500.782410   C1598.725098,501.901306 1599.760498,502.782379 1600.787720,503.387177   C1601.000000,505.700012 1601.000000,508.400024 1601.000000,511.550018   C1592.262207,499.638855 1586.736450,485.803833 1583.050293,471.272461   C1572.802124,430.871979 1578.901611,392.852386 1600.670776,357.103302   C1601.000000,359.370575 1601.000000,361.741119 1601.000000,364.555847  z"/>
<path fill="#F7EBF0" opacity="1.000000" stroke="none" d=" M1.000000,716.458069   C10.637504,737.569458 11.850503,759.746155 5.627450,782.401306   C4.576750,786.226440 2.971187,789.899109 1.310991,793.821106   C1.000000,790.969421 1.000000,787.938782 1.352453,784.314636   C5.532272,772.062195 6.977024,760.031128 5.722147,747.909302   C4.991580,740.852234 2.628524,733.964111 0.999999,727.000000   C1.000000,723.638733 1.000000,720.277405 1.000000,716.458069  z"/>
<path fill="#64293D" opacity="1.000000" stroke="none" d=" M0.999999,727.468628   C2.628524,733.964111 4.991580,740.852234 5.722147,747.909302   C6.977024,760.031128 5.532272,772.062195 1.352453,783.860535   C1.000000,765.312439 1.000000,746.624878 0.999999,727.468628  z"/>
</svg>