<svg id="visual" viewBox="0 0 900 600" width="900" height="600" xmlns="http://www.w3.org/2000/svg" xmlns:xlink="http://www.w3.org/1999/xlink" version="1.1"><rect x="0" y="0" width="900" height="600" fill="#F3F0E0"></rect><path d="M0 26L113 26L113 38L225 38L225 33L338 33L338 25L450 25L450 17L563 17L563 25L675 25L675 22L788 22L788 38L900 38L900 31L900 0L900 0L788 0L788 0L675 0L675 0L563 0L563 0L450 0L450 0L338 0L338 0L225 0L225 0L113 0L113 0L0 0Z" fill="#641D36" stroke-linecap="square" stroke-linejoin="miter"></path></svg>