<svg id="visual" viewBox="0 0 900 600" width="900" height="600" xmlns="http://www.w3.org/2000/svg" xmlns:xlink="http://www.w3.org/1999/xlink" version="1.1"><rect x="0" y="0" width="900" height="600" fill="#641D36"></rect><path d="M0 21L100 21L100 18L200 18L200 28L300 28L300 19L400 19L400 31L500 31L500 25L600 25L600 43L700 43L700 38L800 38L800 31L900 31L900 16L900 0L900 0L800 0L800 0L700 0L700 0L600 0L600 0L500 0L500 0L400 0L400 0L300 0L300 0L200 0L200 0L100 0L100 0L0 0Z" fill="#F3F0E0" stroke-linecap="square" stroke-linejoin="miter"></path></svg>